<svg xmlns="http://www.w3.org/2000/svg" viewBox="0 0 64 64">
  <rect width="64" height="64" rx="12" fill="#f8fafc"/>
  <g fill="#061526">
    <ellipse cx="31.5" cy="53" rx="20" ry="4.2"/>
    <path d="M21 32.8c0-3.6 4.8-6.4 11-6.4s11 2.8 11 6.4v5.8c2.9 1.4 5 3.8 5 6.6v6.5c0 5.4-7.2 9.1-16 9.1s-16-3.7-16-9.1v-6.5c0-2.8 2.1-5.2 5-6.6z"/>
  </g>
  <path fill="#f8fafc" d="M19.5 45.4c0-4.1 5.6-7.4 12.5-7.4s12.5 3.3 12.5 7.4v6.2c0 3.9-5.6 6.4-12.5 6.4s-12.5-2.5-12.5-6.4z"/>
  <path fill="#08213a" d="M22.3 46.2c0-3.1 4.3-5.4 9.7-5.4s9.7 2.3 9.7 5.4v5.2c0 2.7-4.3 4.5-9.7 4.5s-9.7-1.8-9.7-4.5z"/>
  <path fill="#0f3760" d="M23.5 32.6c0-2 3.8-3.7 8.5-3.7s8.5 1.7 8.5 3.7v4c0 2.1-3.8 3.8-8.5 3.8s-8.5-1.7-8.5-3.8z"/>
  <ellipse cx="32" cy="32.4" fill="#f8fafc" rx="11" ry="5.2"/>
  <ellipse cx="32" cy="32.4" fill="#08213a" rx="8.2" ry="3"/>
  <path fill="#0a1d35" d="M32 29.2c2.2-9.1 7.7-18.9 18.6-25.5-11.7.2-20.3 6.4-24.2 16-2.6 6.4-2.2 12.1-.8 15.5z"/>
  <path fill="#123b6d" d="M32 29.2c2.8-9.3 9-18.8 18.6-25.5-3.7 7.1-4.3 11.6-9.2 16.5-3.1 3.1-5.9 4.7-9.4 5.9z"/>
  <path fill="#f8fafc" d="M29.2 36.4C33.7 21.5 43.4 10.7 49.5 5.9 42.1 13.6 34.4 25.1 31.5 37z"/>
  <path fill="#f8fafc" d="M38.4 22.2c2.7-.2 5.5-1.7 7.6-4.1-1.3 3.6-4.5 6.1-8.7 6.9zm-4.7 9.1c3.7-.1 7.4-1.9 10.1-4.8-1.8 4.1-5.8 6.9-11 7.6z"/>
  <g fill="#061526">
    <circle cx="15" cy="25" r="3.8"/>
    <circle cx="20.6" cy="16" r="2.5"/>
    <circle cx="18.8" cy="31.8" r="1.7"/>
    <circle cx="25.1" cy="21.5" r="1.6"/>
  </g>
</svg>
