<svg xmlns="http://www.w3.org/2000/svg" viewBox="0 0 64 64">
  <rect width="64" height="64" rx="14" fill="#07111f"/>
  <path fill="#1d2f47" d="M32 5 46 18 59 32 46 46 32 59 18 46 5 32 18 18z"/>
  <path fill="#0d1827" d="M32 11 43 22 53 32 43 42 32 53 21 42 11 32 21 22z"/>
  <path fill="#70d6ff" d="m32 10 8 18h-16z"/>
  <path fill="#36a7df" d="m11 32 13-4 8 24z"/>
  <path fill="#19587a" d="m53 32-13-4-8 24z"/>
  <path fill="#c7e9ff" d="m24 28 8-18 8 18z" opacity=".45"/>
  <path fill="#e3b44f" d="m32 22 7 10-7 10-7-10z"/>
  <path fill="#9adfff" d="M25 32h14l-7 10z"/>
  <path fill="#12243a" d="m18 18 6 10-13 4zm28 0-6 10 13 4z"/>
  <path fill="none" stroke="#9adfff" stroke-linejoin="round" stroke-width="2" d="M32 5 46 18 59 32 46 46 32 59 18 46 5 32 18 18z" opacity=".35"/>
</svg>
